<?xml version="1.0" encoding="UTF-8" standalone="no"?>
<!DOCTYPE svg PUBLIC "-//W3C//DTD SVG 1.0//EN" "http://www.w3.org/TR/2001/REC-SVG-20010904/DTD/svg10.dtd">
<!-- Created with Inkscape (http://www.inkscape.org/) by Steadfast-->
<svg
   xmlns:svg="http://www.w3.org/2000/svg"
   xmlns="http://www.w3.org/2000/svg"
   version="1.0"
   width="350"
   height="500"
   id="svg4492">
  <defs
     id="defs4494" />
  <g
     transform="translate(-213.822,-44.6379)"
     id="layer1">
    <g
       transform="matrix(1.3206657,0,0,1.3206657,-58.647894,-4.3142726)"
       id="g5629">
      <path
         d="M 227.51638,44.760854 L 227.51638,176.38233 L 261.41487,176.38233 C 290.01621,176.38233 297.43201,160.22749 297.43201,140.10035 L 297.43201,81.307661 C 297.43192,61.074755 290.01612,44.760854 261.41487,44.760854 L 227.51638,44.760854 z M 248.70293,56.413459 L 259.29621,56.413459 C 270.94873,56.413374 276.24545,61.816115 276.24545,79.189005 L 276.24545,141.95417 C 276.24545,159.32715 270.94873,164.72972 259.29621,164.72972 L 248.70293,164.72972 L 248.70293,56.413459 z"
         id="path1188"
         style="font-style:normal;font-variant:normal;font-weight:normal;font-stretch:normal;letter-spacing:normal;word-spacing:normal;text-anchor:start;fill:#c8c8c8;fill-opacity:1;fill-rule:nonzero;stroke:#c8c8c8;stroke-width:0pt;stroke-linecap:butt;stroke-linejoin:miter;stroke-miterlimit:10.43299961;stroke-dasharray:none;stroke-dashoffset:0;stroke-opacity:1" />
      <polygon
         points="1266.1,254.79 1259.8,254.79 1259.8,253.61 1261.9,253.61 1261.9,242.34 1264.1,242.34 1264.1,253.61 1266.1,253.61 1266.1,254.79 "
         transform="matrix(10.5932,0,0,-10.5932,-13040.4,2743.68)"
         id="polygon1182"
         style="font-style:normal;font-variant:normal;font-weight:normal;font-stretch:normal;letter-spacing:normal;word-spacing:normal;text-anchor:start;fill:#c8c8c8;fill-opacity:1;fill-rule:nonzero;stroke:#c8c8c8;stroke-width:0pt;stroke-linecap:butt;stroke-linejoin:miter;stroke-miterlimit:10.43299961;stroke-dasharray:none;stroke-dashoffset:0;stroke-opacity:1" />
      <path
         d="M 428.8634,44.638226 L 428.8634,144.21444 C 428.8634,156.71442 426.74491,165.08303 415.09247,165.08303 C 403.43995,165.08303 401.32147,156.71442 401.32147,144.21444 L 401.32147,44.638226 L 380.135,44.638226 L 380.135,150.78219 C 380.135,163.28217 390.72827,176.41775 408.73685,176.41775 L 422.50785,176.41775 C 439.45667,176.41775 450.04987,163.28217 450.04987,150.78219 L 450.04987,44.638226 L 428.8634,44.638226 z"
         id="path1184"
         style="font-style:normal;font-variant:normal;font-weight:normal;font-stretch:normal;letter-spacing:normal;word-spacing:normal;text-anchor:start;fill:#c8c8c8;fill-opacity:1;fill-rule:nonzero;stroke:#c8c8c8;stroke-width:0pt;stroke-linecap:butt;stroke-linejoin:miter;stroke-miterlimit:10.43299961;stroke-dasharray:none;stroke-dashoffset:0;stroke-opacity:1" />
      <path
         d="M 463.82147,380.23114 L 409.79617,408.09129 C 341.9992,381.3964 335.64366,381.3964 266.78752,408.09129 L 213.82147,380.23114 L 266.78752,352.37099 C 335.64366,379.17181 341.9992,379.17181 409.79617,352.37099 L 463.82147,380.23114 z"
         id="path1190"
         style="font-style:normal;font-variant:normal;font-weight:normal;font-stretch:normal;letter-spacing:normal;word-spacing:normal;text-anchor:start;fill:#c8c8c8;fill-opacity:1;fill-rule:nonzero;stroke:#c8c8c8;stroke-width:0pt;stroke-linecap:butt;stroke-linejoin:miter;stroke-miterlimit:10.43299961;stroke-dasharray:none;stroke-dashoffset:0;stroke-opacity:1" />
      <path
         d="M 463.82147,311.48119 L 409.79617,339.23541 C 341.9992,312.54052 335.64366,312.54052 266.78752,339.23541 L 213.82147,311.48119 L 266.78752,283.62113 C 335.64366,310.31593 341.9992,310.31593 409.79617,283.62113 L 463.82147,311.48119 z"
         id="path1192"
         style="font-style:normal;font-variant:normal;font-weight:normal;font-stretch:normal;letter-spacing:normal;word-spacing:normal;text-anchor:start;fill:#c8c8c8;fill-opacity:1;fill-rule:nonzero;stroke:#c8c8c8;stroke-width:0pt;stroke-linecap:butt;stroke-linejoin:miter;stroke-miterlimit:10.43299961;stroke-dasharray:none;stroke-dashoffset:0;stroke-opacity:1" />
      <path
         d="M 463.82147,242.62531 L 409.79617,270.37953 C 341.9992,243.68464 335.64366,243.68464 266.78752,270.37953 L 213.82147,242.62531 L 266.78752,214.76525 C 335.64366,241.46014 341.9992,241.46014 409.79617,214.76525 L 463.82147,242.62531 z"
         id="path1194"
         style="font-style:normal;font-variant:normal;font-weight:normal;font-stretch:normal;letter-spacing:normal;word-spacing:normal;text-anchor:start;fill:#c8c8c8;fill-opacity:1;fill-rule:nonzero;stroke:#c8c8c8;stroke-width:0pt;stroke-linecap:butt;stroke-linejoin:miter;stroke-miterlimit:10.43299961;stroke-dasharray:none;stroke-dashoffset:0;stroke-opacity:1" />
    </g>
  </g>
</svg>
